<?xml version="1.0" encoding="UTF-8"?>
<svg width="374px" height="56px" viewBox="0 0 374 56" version="1.1" xmlns="http://www.w3.org/2000/svg" xmlns:xlink="http://www.w3.org/1999/xlink">
    <!-- Generator: Sketch 59.1 (86144) - https://sketch.com -->
    <title>BI_1_1line_b</title>
    <desc>Created with Sketch.</desc>
    <g id="BI_1_1line_b" stroke="none" stroke-width="1" fill="none" fill-rule="evenodd">
        <path d="M4,26.4154786 L12.9419361,26.4154786 C11.9850499,29.3808554 10.4342344,32.0529532 8.35548177,34.6598778 L10.5332227,36.1588595 L10.8657277,35.7157454 C14.5879957,30.7036568 16.7364846,25.9797498 16.7364846,16.7046843 L4.890894,16.7046843 L4.890894,18.9531568 L14.0967987,18.9531568 C14.0638026,20.8105906 13.8988222,22.5376782 13.5358654,24.1344196 L4,24.1344196 L4,26.4154786 Z M22.1478407,14.4236253 L22.1478407,41.6659878 L24.8205227,41.6659878 L24.8205227,26.610998 L29.4729692,26.610998 L29.4729692,24.2647658 L24.8205227,24.2647658 L24.8205227,14.4236253 L22.1478407,14.4236253 Z M31.3668153,26.4154786 L40.3087513,26.4154786 C39.3518652,29.3808554 37.8010497,32.0529532 35.722297,34.6598778 L37.9000379,36.1588595 L38.2325429,35.7157454 C41.954811,30.7036568 44.1032998,25.9797498 44.1032998,16.7046843 L32.2577093,16.7046843 L32.2577093,18.9531568 L41.4636139,18.9531568 C41.4306178,20.8105906 41.2656375,22.5376782 40.9026807,24.1344196 L31.3668153,24.1344196 L31.3668153,26.4154786 Z M49.514656,14.4236253 L49.514656,41.6659878 L52.187338,41.6659878 L52.187338,26.610998 L56.8397844,26.610998 L56.8397844,24.2647658 L52.187338,24.2647658 L52.187338,14.4236253 L49.514656,14.4236253 Z M84.4105754,37.5274949 L84.4105754,35.311609 L72.5649848,35.311609 L72.5649848,29.6089613 C76.8214784,29.0875764 79.6591408,26.2851324 79.6591408,22.5376782 C79.6591408,18.4643585 76.194553,15.401222 71.2121458,15.401222 C66.2627347,15.401222 62.7981469,18.4643585 62.7981469,22.5376782 C62.7981469,26.2525458 65.6358093,29.0875764 69.8593068,29.6089613 L69.8593068,35.311609 L58.0797083,35.311609 L58.0797083,37.5274949 L84.4105754,37.5274949 Z M65.4708289,22.5376782 C65.4708289,19.7026477 67.7805541,17.7148676 71.2121458,17.7148676 C74.6767336,17.7148676 76.9864588,19.7026477 76.9864588,22.5376782 C76.9864588,25.3401222 74.6767336,27.3930754 71.2121458,27.3930754 C67.7805541,27.3930754 65.4708289,25.3401222 65.4708289,22.5376782 Z M100.673783,38.8309572 L100.673783,19.5071283 L107.767939,19.5071283 L107.767939,15.7596741 L88.7622005,15.7596741 L88.7622005,19.5071283 L95.8563564,19.5071283 L95.8563564,38.8309572 L100.673783,38.8309572 Z M117.839884,15.4663951 L117.839884,18.8553971 L129.454502,18.8553971 C129.190533,21.4949084 123.449216,23.9389002 115.992103,24.9164969 L117.27895,28.4358452 C121.634432,27.8167006 125.626957,26.7413442 128.662596,25.0794297 L135.69076,28.2729124 L137.406556,24.7209776 L131.698235,22.7657841 C133.216054,21.2016293 134.106948,19.2790224 134.106948,16.9979633 L134.106948,15.4663951 L117.839884,15.4663951 Z M139.683285,33.3564155 L139.683285,29.9674134 L113.286425,29.9674134 L113.286425,33.3564155 L124.34011,33.3564155 L124.34011,41.9592668 L128.662596,41.9592668 L128.662596,33.3564155 L139.683285,33.3564155 Z M150.222102,17.6171079 L150.222102,14 L146.130589,14 L146.130589,17.6171079 L142.00608,17.6171079 L142.00608,21.0386965 L149.826149,21.0386965 C149.562181,24.7861507 145.53666,29.0224033 140.653241,31.4989817 L142.863978,34.7250509 C145.371679,33.4215886 147.978369,31.5315682 150.024126,29.1201629 L155.204509,34.0733198 L157.97618,30.9775967 L152.069882,26.2199593 C153.323733,24.0692464 154.082643,21.592668 154.082643,18.8553971 L154.082643,17.6171079 L150.222102,17.6171079 Z M163.123567,14.4236253 L158.90007,14.4236253 L158.90007,41.6659878 L163.123567,41.6659878 L163.123567,27.5234216 L167.413057,27.5234216 L167.413057,23.9714868 L163.123567,23.9714868 L163.123567,14.4236253 Z M177.772967,38.8309572 L182.194441,38.8309572 L182.194441,24.9490835 L187.176848,24.9490835 L187.176848,21.6578411 L182.194441,21.6578411 L182.194441,20.8757637 C182.194441,18.790224 183.217319,17.8126273 185.329068,17.8126273 C185.955993,17.8126273 186.714903,17.910387 187.341828,18.1059063 L188.298715,14.8798371 C187.275836,14.3910387 185.791013,14.1303462 184.504166,14.1303462 C180.18168,14.1303462 177.772967,16.8350305 177.772967,21.1038697 L177.772967,21.6578411 L174.902308,21.9837067 L174.902308,24.9490835 L177.772967,24.9490835 L177.772967,38.8309572 Z M196.890764,21.1364562 C191.809368,21.1364562 188.641745,24.7209776 188.641745,30.3584521 C188.641745,35.898167 191.743376,39.3197556 196.890764,39.3197556 C202.038151,39.3197556 205.106786,35.898167 205.106786,30.3584521 C205.106786,24.6558045 201.972159,21.1364562 196.890764,21.1364562 Z M196.890764,24.5254582 C199.398465,24.5254582 200.586324,26.5784114 200.586324,30.3910387 C200.586324,34.0407332 199.431461,35.9307536 196.890764,35.9307536 C194.383062,35.9307536 193.162207,34.0407332 193.162207,30.3910387 C193.162207,26.5784114 194.416058,24.5254582 196.890764,24.5254582 Z M217.136426,25.2423625 C218.258293,25.2423625 218.984206,25.3727088 219.677124,25.5356415 L220.139069,21.299389 C219.71012,21.1690428 219.215179,21.1364562 218.654246,21.1364562 C216.773469,21.1364562 214.694717,22.0162933 213.209893,23.5478615 L212.516976,21.6578411 L209.349353,21.6578411 L209.349353,38.8309572 L213.770827,38.8309572 L213.770827,25.8615071 C214.760709,25.503055 215.948568,25.2423625 217.136426,25.2423625 Z M229.344117,38.8309572 L233.765591,38.8309572 L233.765591,25.4378819 C234.491504,25.1446029 235.811347,24.9490835 236.570257,24.9490835 C238.616013,24.9490835 239.308931,25.7637475 239.308931,27.6863544 L239.308931,38.8309572 L243.730405,38.8309572 L243.730405,25.4378819 C244.456319,25.1446029 245.578185,24.9490835 246.502075,24.9490835 C248.547832,24.9490835 249.273745,25.7637475 249.273745,27.6863544 L249.273745,38.8309572 L253.695219,38.8309572 L253.695219,27.4256619 C253.695219,23.0916497 251.814443,21.1364562 248.349855,21.1364562 C246.436083,21.1364562 244.456319,21.9185336 243.004491,23.3197556 C242.146593,21.8533605 240.628774,21.1364562 238.517025,21.1364562 C236.570257,21.1364562 234.5245,21.9511202 233.105669,23.3197556 L232.478744,21.6578411 L229.344117,21.6578411 L229.344117,38.8309572 Z M256.440964,33.8778004 C256.440964,37.299389 258.32174,39.287169 261.720336,39.287169 C263.271151,39.287169 265.184924,38.7331976 266.966712,37.3645621 L267.461653,38.8309572 L270.563284,38.8309572 L270.563284,27.7515275 C270.563284,23.287169 268.220562,21.1364562 263.766092,21.1364562 C261.489363,21.1364562 259.014658,21.8207739 257.331858,22.9613035 L258.552713,25.9592668 C260.136524,25.1446029 261.621348,24.8187373 263.238155,24.8187373 C265.844845,24.8187373 266.438774,25.8940937 266.438774,27.7841141 L266.438774,28.3706721 L263.667104,28.3706721 C258.948666,28.3706721 256.440964,30.2606925 256.440964,33.8778004 Z M262.61123,35.898167 C261.159403,35.898167 260.433489,35.0835031 260.433489,33.8452138 C260.433489,32.1181263 261.68734,31.1731161 264.063057,31.1731161 L266.438774,31.1731161 L266.438774,34.5295316 C265.646869,35.2138493 264.129049,35.898167 262.61123,35.898167 Z M274.298911,38.8309572 L278.720385,38.8309572 L278.720385,25.6008147 C279.743263,25.209776 281.063106,24.9490835 281.986996,24.9490835 C284.329717,24.9490835 285.055631,25.7637475 285.055631,27.6863544 L285.055631,38.8309572 L289.477105,38.8309572 L289.477105,27.8167006 C289.477105,23.5152749 287.530336,21.1364562 283.6368,21.1364562 C281.789019,21.1364562 279.644275,22.0162933 278.093459,23.3849287 L277.433538,21.6578411 L274.298911,21.6578411 L274.298911,38.8309572 Z M292.222849,33.8778004 C292.222849,37.299389 294.103626,39.287169 297.502221,39.287169 C299.053037,39.287169 300.966809,38.7331976 302.748597,37.3645621 L303.243538,38.8309572 L306.345169,38.8309572 L306.345169,27.7515275 C306.345169,23.287169 304.002448,21.1364562 299.547978,21.1364562 C297.271249,21.1364562 294.796543,21.8207739 293.113743,22.9613035 L294.334598,25.9592668 C295.91841,25.1446029 297.403233,24.8187373 299.020041,24.8187373 C301.570063,24.8187373 302.193886,25.8478473 302.219803,27.6620095 L302.22066,28.3706721 L299.44899,28.3706721 C294.730551,28.3706721 292.222849,30.2606925 292.222849,33.8778004 Z M298.393115,35.898167 C296.941288,35.898167 296.215374,35.0835031 296.215374,33.8452138 C296.215374,32.1181263 297.469225,31.1731161 299.844943,31.1731161 L302.22066,31.1731161 L302.22066,34.5295316 C301.428754,35.2138493 299.910935,35.898167 298.393115,35.898167 Z M316.581023,32.6720978 C320.936504,32.6720978 323.741171,30.4562118 323.741171,27.0020367 C323.741171,25.6334012 323.24623,24.6232179 322.421328,23.6456212 L325.621947,22.8309572 L323.57619,19.2790224 L320.771524,22.0162933 C319.583665,21.4623218 318.164834,21.1364562 316.581023,21.1364562 C312.192545,21.1364562 309.321886,23.4175153 309.321886,27.0020367 C309.321886,28.8268839 310.113792,30.293279 311.565619,31.3360489 C310.245776,32.509165 309.519863,33.7800407 309.519863,35.1812627 C309.519863,36.191446 309.88282,36.9735234 310.641729,37.5600815 C309.486867,38.7331976 308.95893,40.0040733 308.95893,41.3075356 C308.95893,44.2077393 311.598615,46 315.954097,46 C321.530434,46 324.665061,43.7841141 324.665061,39.8411405 C324.665061,36.9409369 322.355336,35.0835031 318.560787,35.0835031 L315.624137,35.0835031 C313.908341,35.0835031 313.314411,34.6924644 313.314411,33.6496945 C313.314411,33.2260692 313.446396,32.7698574 313.776356,32.3136456 C314.634254,32.5743381 315.558144,32.6720978 316.581023,32.6720978 Z M317.86787,38.4399185 C319.649658,38.4399185 320.573548,39.0916497 320.573548,40.2321792 C320.573548,41.8940937 319.220709,42.6761711 316.317054,42.6761711 C314.040325,42.6761711 312.753478,41.8289206 312.753478,40.2973523 C312.753478,39.7107943 312.951455,39.0590631 313.347407,38.4399185 L317.86787,38.4399185 Z M316.581023,29.4786151 C314.403282,29.4786151 313.512388,28.5010183 313.512388,26.8716904 C313.512388,25.2423625 314.469274,24.3299389 316.581023,24.3299389 C318.725767,24.3299389 319.682654,25.209776 319.682654,26.8716904 C319.682654,28.5010183 318.79176,29.4786151 316.581023,29.4786151 Z M334.240993,21.1364562 C329.456562,21.1364562 326.453919,24.4928717 326.453919,30.2281059 C326.453919,36.191446 329.324578,39.3197556 335.164883,39.3197556 C337.111651,39.3197556 339.718341,38.6680244 341.137172,37.8533605 L340.14729,34.8879837 C338.959431,35.4419552 336.979667,35.8329939 335.725816,35.8329939 C332.591189,35.8329939 331.07337,34.3665988 330.941385,31.6619145 L341.335149,31.6619145 L341.365066,31.4698153 C341.427403,31.0394447 341.500129,30.3491417 341.500129,29.706721 C341.500129,24.2321792 338.893439,21.1364562 334.240993,21.1364562 Z M334.109009,24.4276986 C336.286749,24.4276986 337.21064,25.7637475 337.21064,28.6965377 L330.908389,28.6965377 C330.974382,25.9918534 332.096248,24.4276986 334.109009,24.4276986 Z M352.098939,25.2423625 C353.220806,25.2423625 353.94672,25.3727088 354.639637,25.5356415 L355.101582,21.299389 C354.672633,21.1690428 354.177692,21.1364562 353.616759,21.1364562 C351.735983,21.1364562 349.65723,22.0162933 348.172407,23.5478615 L347.479489,21.6578411 L344.311866,21.6578411 L344.311866,38.8309572 L348.73334,38.8309572 L348.73334,25.8615071 C349.723222,25.503055 350.911081,25.2423625 352.098939,25.2423625 Z M360.684989,26.3503055 C360.684989,27.2442341 361.541224,27.8174147 363.756423,28.5939196 L364.149577,28.7291242 C367.746149,29.9674134 369,31.3686354 369,33.8778004 C369,37.3645621 366.723271,39.3197556 362.268801,39.3197556 C360.25604,39.3197556 357.814331,38.8635438 355.867563,38.0814664 L356.758457,34.6924644 C358.507248,35.3441955 360.421021,35.8329939 362.235805,35.8329939 C364.083585,35.8329939 364.743506,35.2138493 364.743506,34.203666 L364.740719,34.0747741 C364.699554,33.1710106 364.177011,32.683226 361.502053,31.759654 L361.311915,31.694501 C357.748339,30.4887984 356.461492,29.2505092 356.461492,26.3828921 C356.461492,23.287169 359.035186,21.1364562 362.86273,21.1364562 C365.007475,21.1364562 366.888251,21.5600815 368.802024,22.4399185 L367.581169,25.6008147 C366.426306,24.9816701 364.644518,24.5580448 363.258683,24.5580448 C361.608879,24.5580448 360.684989,25.2749491 360.684989,26.3503055 Z" id="카카오T주차formanagers" fill="#000000" fill-rule="nonzero"></path>
    </g>
</svg>