<?xml version="1.0" encoding="UTF-8"?>
<svg width="170px" height="60px" viewBox="0 0 170 60" version="1.1" xmlns="http://www.w3.org/2000/svg" xmlns:xlink="http://www.w3.org/1999/xlink">
    <!-- Generator: Sketch 61.2 (89653) - https://sketch.com -->
    <title>BI_1_2line_b</title>
    <desc>Created with Sketch.</desc>
    <g id="Page-1" stroke="none" stroke-width="1" fill="none" fill-rule="evenodd">
        <g id="BI_1_2line_w" fill="#FFFFFF" fill-rule="nonzero">
            <path d="M10.368,6.008 C10.368,7.288 10.272,8.504 10.048,9.688 L1.344,9.688 L1.344,12.952 L9.216,12.952 C8.352,15.288 7.04,17.432 5.344,19.512 L8.736,21.72 C12.064,17.592 14.4,12.632 14.4,5.176 L14.4,2.744 L2.24,2.744 L2.24,6.008 L10.368,6.008 Z M22.4,0.792 L18.304,0.792 L18.304,27.544 L22.4,27.544 L22.4,13.24 L26.56,13.24 L26.56,9.72 L22.4,9.72 L22.4,0.792 Z M38.184,6.008 C38.184,7.288 38.088,8.504 37.864,9.688 L29.16,9.688 L29.16,12.952 L37.032,12.952 C36.168,15.288 34.856,17.432 33.16,19.512 L36.552,21.72 C39.88,17.592 42.216,12.632 42.216,5.176 L42.216,2.744 L30.056,2.744 L30.056,6.008 L38.184,6.008 Z M50.216,0.792 L46.12,0.792 L46.12,27.544 L50.216,27.544 L50.216,13.24 L54.376,13.24 L54.376,9.72 L50.216,9.72 L50.216,0.792 Z M71.12,20.088 L71.12,15.96 C75.184,15.256 77.904,12.408 77.904,8.792 C77.904,4.632 74.288,1.464 69.008,1.464 C63.792,1.464 60.144,4.632 60.144,8.792 C60.144,12.408 62.832,15.256 66.96,15.96 L66.96,20.088 L56.272,20.088 L56.272,23.48 L81.808,23.48 L81.808,20.088 L71.12,20.088 Z M69.008,12.76 C66.128,12.76 64.304,11.064 64.304,8.792 C64.304,6.52 66.128,4.824 69.008,4.824 C71.92,4.824 73.744,6.52 73.744,8.792 C73.744,11.064 71.92,12.76 69.008,12.76 Z M100.04,24.76 L100.04,5.784 L106.92,5.784 L106.92,2.104 L88.488,2.104 L88.488,5.784 L95.368,5.784 L95.368,24.76 L100.04,24.76 Z M116.984,1.816 L116.984,5.144 L128.248,5.144 C127.992,7.736 122.424,10.136 115.192,11.096 L116.44,14.552 C120.664,13.944 124.536,12.888 127.48,11.256 L134.296,14.392 L135.96,10.904 L130.424,8.984 C131.896,7.448 132.76,5.56 132.76,3.32 L132.76,1.816 L116.984,1.816 Z M138.168,19.384 L138.168,16.056 L112.568,16.056 L112.568,19.384 L123.288,19.384 L123.288,27.832 L127.48,27.832 L127.48,19.384 L138.168,19.384 Z M149.664,3.928 L149.664,0.376 L145.696,0.376 L145.696,3.928 L141.696,3.928 L141.696,7.288 L149.28,7.288 C149.024,10.968 145.12,15.128 140.384,17.56 L142.528,20.728 C144.96,19.448 147.488,17.592 149.472,15.224 L154.496,20.088 L157.184,17.048 L151.456,12.376 C152.672,10.264 153.408,7.832 153.408,5.144 L153.408,3.928 L149.664,3.928 Z M162.176,0.792 L162.176,10.168 L166.336,10.168 L166.336,13.656 L162.176,13.656 L162.176,27.544 L158.08,27.544 L158.08,0.792 L162.176,0.792 Z" id="카카오T주차"></path>
            <path d="M2.185,53.045 L3.781,53.045 L3.781,44.381 L6.802,44.381 L6.802,43.127 L3.781,43.127 L3.781,42.177 C3.781,40.543 4.503,39.992 5.833,39.992 C6.289,39.992 6.764,40.068 7.22,40.22 L7.619,39.042 C7.068,38.795 6.27,38.643 5.643,38.643 C3.344,38.643 2.185,39.992 2.185,42.386 L2.185,43.127 L0.551,43.355 L0.551,44.381 L2.185,44.381 L2.185,53.045 Z M12.635,42.861 C9.88,42.861 8.189,44.723 8.189,48.067 C8.189,51.392 9.861,53.235 12.635,53.235 C15.428,53.235 17.081,51.392 17.081,48.067 C17.081,44.723 15.409,42.861 12.635,42.861 Z M12.635,44.172 C14.402,44.172 15.428,45.54 15.428,48.067 C15.428,50.594 14.402,51.924 12.635,51.924 C10.868,51.924 9.842,50.594 9.842,48.067 C9.842,45.54 10.868,44.172 12.635,44.172 Z M23.94,44.381 C24.32,44.381 24.605,44.419 24.89,44.495 L25.118,42.918 C24.985,42.88 24.738,42.861 24.491,42.861 C23.351,42.861 21.964,43.374 21.109,44.077 L20.824,43.127 L19.665,43.127 L19.665,53.045 L21.261,53.045 L21.261,45.16 C22.04,44.647 23.142,44.381 23.94,44.381 Z M30.609,53.045 L32.205,53.045 L32.205,45.027 L32.4377036,44.8916111 C32.8729687,44.649375 33.7143125,44.248 34.656,44.248 C36.062,44.248 36.423,45.027 36.423,46.129 L36.423,53.045 L38.019,53.045 L38.019,45.122 C38.589,44.685 39.577,44.248 40.413,44.248 C41.971,44.248 42.199,45.103 42.199,46.376 L42.199,53.045 L43.814,53.045 L43.814,46.224 C43.814,43.925 42.769,42.861 40.831,42.861 C39.786,42.861 38.646,43.222 37.62,44.153 C37.126,43.279 36.29,42.861 35.074,42.861 C34.257,42.861 33.136,43.108 32.034,43.963 L31.768,43.127 L30.609,43.127 L30.609,53.045 Z M46.265,50.347 C46.265,52.133 47.329,53.197 49.096,53.197 C50.103,53.197 51.376,52.741 52.364,51.943 L52.554,53.045 L53.732,53.045 L53.732,46.509 C53.732,44.001 52.573,42.861 50.198,42.861 C49.115,42.861 47.899,43.203 46.892,43.773 L47.367,44.894 C48.184,44.514 49.229,44.229 50.16,44.229 C51.49,44.229 52.193,44.856 52.193,46.433 L52.193,47.25 L50.198,47.25 C47.633,47.25 46.265,48.314 46.265,50.347 Z M49.381,51.905 C48.355,51.905 47.785,51.316 47.785,50.271 C47.785,48.979 48.602,48.371 50.407,48.371 L52.193,48.371 L52.193,50.765 C51.528,51.411 50.312,51.905 49.381,51.905 Z M56.867,53.045 L58.463,53.045 L58.463,45.046 C59.204,44.628 60.42,44.248 61.256,44.248 C62.833,44.248 63.384,45.027 63.384,46.566 L63.384,53.045 L64.98,53.045 L64.98,46.547 C64.98,44.172 63.897,42.861 61.674,42.861 C60.553,42.861 59.223,43.355 58.292,44.001 L58.026,43.127 L56.867,43.127 L56.867,53.045 Z M67.431,50.347 C67.431,52.133 68.495,53.197 70.262,53.197 C71.269,53.197 72.542,52.741 73.53,51.943 L73.72,53.045 L74.898,53.045 L74.898,46.509 C74.898,44.001 73.739,42.861 71.364,42.861 C70.281,42.861 69.065,43.203 68.058,43.773 L68.533,44.894 C69.35,44.514 70.395,44.229 71.326,44.229 C72.656,44.229 73.359,44.856 73.359,46.433 L73.359,47.25 L71.364,47.25 C68.799,47.25 67.431,48.314 67.431,50.347 Z M70.547,51.905 C69.521,51.905 68.951,51.316 68.951,50.271 C68.951,48.979 69.768,48.371 71.573,48.371 L73.359,48.371 L73.359,50.765 C72.694,51.411 71.478,51.905 70.547,51.905 Z M81.586,49.359 C83.98,49.359 85.5,48.143 85.5,46.167 C85.5,45.312 85.253,44.666 84.702,44.077 L86.412,43.545 L85.519,41.987 L83.961,43.45 C83.315,43.07 82.669,42.861 81.586,42.861 C79.173,42.861 77.691,44.115 77.691,46.148 C77.691,47.231 78.09,48.048 78.831,48.599 C78.109,49.245 77.786,49.986 77.786,50.708 C77.786,51.335 78.071,51.848 78.584,52.19 C77.843,52.855 77.444,53.672 77.444,54.603 C77.444,56.047 78.622,57.187 81.358,57.187 C84.322,57.187 86.013,56.009 86.013,53.919 C86.013,52.323 84.778,51.335 82.764,51.335 L80.712,51.335 C79.629,51.335 79.211,50.993 79.211,50.271 C79.211,49.872 79.382,49.473 79.743,49.055 C80.294,49.245 80.883,49.359 81.586,49.359 Z M80.389,52.627 L82.555,52.627 C83.828,52.627 84.493,53.197 84.493,54.128 C84.493,55.268 83.334,55.933 81.491,55.933 C79.743,55.933 78.888,55.344 78.888,54.223 C78.888,53.634 79.078,53.121 79.572,52.551 C79.819,52.608 80.085,52.627 80.389,52.627 Z M81.605,48.105 C80.028,48.105 79.211,47.459 79.211,46.148 C79.211,44.78 80.028,44.115 81.586,44.115 C83.182,44.115 83.98,44.78 83.98,46.148 C83.98,47.459 83.182,48.105 81.605,48.105 Z M92.074,42.861 C89.376,42.861 87.799,44.799 87.799,48.067 C87.799,51.468 89.376,53.235 92.416,53.235 C93.613,53.235 94.791,52.95 95.741,52.418 L95.323,51.278 C94.544,51.658 93.48,51.886 92.587,51.886 C90.497,51.886 89.566,50.822 89.471,48.656 L95.874,48.656 C95.931,48.428 95.969,47.972 95.969,47.535 C95.969,44.552 94.563,42.861 92.074,42.861 Z M92.017,44.172 C93.651,44.172 94.411,45.198 94.411,47.421 L89.452,47.421 C89.509,45.331 90.364,44.172 92.017,44.172 Z M102.771,44.381 C103.151,44.381 103.436,44.419 103.721,44.495 L103.949,42.918 C103.816,42.88 103.569,42.861 103.322,42.861 C102.182,42.861 100.795,43.374 99.94,44.077 L99.655,43.127 L98.496,43.127 L98.496,53.045 L100.092,53.045 L100.092,45.16 C100.871,44.647 101.973,44.381 102.771,44.381 Z M106.951,45.521 C106.951,46.3388261 107.385594,46.7568261 108.886642,47.3403496 L109.098,47.421 C111.245,48.219 112.024,49.017 112.024,50.366 C112.024,52.019 110.884,53.235 108.452,53.235 C107.331,53.235 106.02,52.969 105.051,52.57 L105.393,51.259 C106.229,51.582 107.483,51.905 108.433,51.905 C109.706,51.905 110.428,51.392 110.428,50.556 C110.428,49.7563478 110.01079,49.3043705 108.477998,48.7178581 L108.262,48.637 C106.058,47.839 105.374,47.041 105.374,45.54 C105.374,43.925 106.761,42.861 108.813,42.861 C109.953,42.861 110.979,43.127 111.853,43.602 L111.378,44.799 C110.675,44.438 109.839,44.191 108.927,44.191 C107.654,44.191 106.951,44.685 106.951,45.521 Z" id="formanagers"></path>
        </g>
    </g>
</svg>