<svg width="48" height="48" viewBox="0 0 48 48" fill="none" xmlns="http://www.w3.org/2000/svg">
<path fill-rule="evenodd" clip-rule="evenodd" d="M17.2501 40.1969C16.5601 40.1969 15.8701 39.9269 15.3301 39.4169C14.8263 38.9109 14.5435 38.226 14.5435 37.5119C14.5435 36.7979 14.8263 36.1129 15.3301 35.6069L26.9401 23.9969L15.3301 12.4169C14.8263 11.9109 14.5435 11.226 14.5435 10.5119C14.5435 9.79791 14.8263 9.11295 15.3301 8.60695C15.8361 8.10315 16.5211 7.82031 17.2351 7.82031C17.9491 7.82031 18.6341 8.10315 19.1401 8.60695L32.6401 22.1069C33.1439 22.6129 33.4267 23.2979 33.4267 24.0119C33.4267 24.726 33.1439 25.4109 32.6401 25.9169L19.1401 39.4169C18.6301 39.9269 17.9401 40.1969 17.2501 40.1969" fill="white"/>
</svg>
