<svg width="48" height="48" viewBox="0 0 48 48" fill="none" xmlns="http://www.w3.org/2000/svg">
<path fill-rule="evenodd" clip-rule="evenodd" d="M30.7499 40.2002C30.3954 40.2004 30.0443 40.1305 29.7169 39.9946C29.3894 39.8587 29.0921 39.6594 28.8419 39.4082L15.3419 25.9082C15.0911 25.6575 14.8921 25.3598 14.7564 25.0321C14.6206 24.7045 14.5508 24.3533 14.5508 23.9987C14.5508 23.6441 14.6206 23.2929 14.7564 22.9652C14.8921 22.6376 15.0911 22.3399 15.3419 22.0892L28.8419 8.5892C29.0907 8.32975 29.3887 8.12258 29.7186 7.97984C30.0485 7.8371 30.4035 7.76167 30.763 7.75796C31.1224 7.75425 31.4789 7.82234 31.8117 7.95824C32.1444 8.09414 32.4467 8.29511 32.7008 8.54937C32.9548 8.80363 33.1556 9.10606 33.2912 9.43893C33.4268 9.77179 33.4946 10.1284 33.4907 10.4878C33.4867 10.8472 33.4109 11.2022 33.268 11.532C33.125 11.8617 32.9175 12.1596 32.6579 12.4082L21.0689 24.0002L32.6579 35.5892C33.0361 35.9666 33.2937 36.4478 33.3983 36.9717C33.5029 37.4957 33.4497 38.0389 33.2454 38.5325C33.0411 39.0262 32.6949 39.4482 32.2507 39.7451C31.8065 40.0419 31.2842 40.2003 30.7499 40.2002Z" fill="white"/>
</svg>
