<svg width="49" height="48" viewBox="0 0 49 48" fill="none" xmlns="http://www.w3.org/2000/svg">
<path fill-rule="evenodd" clip-rule="evenodd" d="M28.302 24.0022L39.604 12.7002C39.827 12.4773 40.0039 12.2127 40.1246 11.9215C40.2453 11.6303 40.3075 11.3182 40.3076 11.0029C40.3077 10.6876 40.2457 10.3755 40.1251 10.0842C40.0046 9.79287 39.8278 9.52817 39.605 9.30519C39.3821 9.08221 39.1175 8.9053 38.8263 8.78457C38.5351 8.66384 38.2229 8.60166 37.9077 8.60156C37.5924 8.60147 37.2803 8.66347 36.989 8.78403C36.6977 8.90459 36.433 9.08134 36.21 9.30419L24.908 20.6082L13.604 9.30419C13.1487 8.87894 12.546 8.64722 11.9231 8.65793C11.3002 8.66865 10.7058 8.92096 10.2654 9.36161C9.82504 9.80226 9.57308 10.3968 9.56274 11.0197C9.55239 11.6426 9.78447 12.2452 10.21 12.7002L21.514 24.0022L10.21 35.3042C9.8759 35.6406 9.64874 36.0682 9.55708 36.5334C9.46542 36.9986 9.51334 37.4804 9.69482 37.9184C9.8763 38.3564 10.1832 38.731 10.577 38.995C10.9708 39.259 11.4339 39.4007 11.908 39.4022C12.522 39.4022 13.136 39.1682 13.604 38.7002L24.908 27.3962L36.21 38.7002C36.4326 38.9235 36.6971 39.1007 36.9883 39.2216C37.2795 39.3425 37.5917 39.4047 37.907 39.4047C38.2223 39.4047 38.5345 39.3425 38.8257 39.2216C39.1169 39.1007 39.3814 38.9235 39.604 38.7002C39.8271 38.4773 40.0041 38.2126 40.1249 37.9212C40.2457 37.6299 40.3079 37.3176 40.3079 37.0022C40.3079 36.6868 40.2457 36.3745 40.1249 36.0831C40.0041 35.7918 39.8271 35.5271 39.604 35.3042L28.302 24.0022Z" fill="white"/>
</svg>
