<svg width="300" height="177" viewBox="0 0 300 177" fill="none" xmlns="http://www.w3.org/2000/svg">
<path d="M48.6106 167.545V168.899H42.2121V174.401H40.5774V168.899H34.2492V167.545H48.6106ZM35.0578 165.031C37.9934 164.627 40.4367 162.878 40.4895 160.936H35.5852V159.6H47.257V160.936H42.3879C42.4143 162.878 44.8401 164.627 47.8195 165.031L47.2043 166.35C44.6203 165.946 42.3879 164.671 41.4299 162.878C40.4631 164.671 38.2395 165.946 35.6906 166.35L35.0578 165.031ZM55.0224 163.731C55.0224 166.156 56.5077 168.723 58.8544 169.848L57.9052 171.114C56.1913 170.305 54.8993 168.661 54.2313 166.737C53.537 168.82 52.1659 170.56 50.3642 171.395L49.4325 170.112C51.8319 169.013 53.3788 166.323 53.3876 163.731V162.694H49.9071V161.358H53.37V158.985H55.0575V161.358H58.4853V162.694H55.0224V163.731ZM60.2255 174.418V158.668H61.8954V165.014H64.4267V166.42H61.8954V174.418H60.2255ZM82.7522 158.668V174.418H81.135V158.668H82.7522ZM69.7795 170.709V160.549H75.7561V161.92H71.4143V169.321C73.471 169.303 74.8596 169.215 76.4944 168.864L76.635 170.27C74.8333 170.63 73.2776 170.709 70.8167 170.709H69.7795ZM74.6838 165.981V164.592H77.9182V159.002H79.5003V173.627H77.9182V165.981H74.6838ZM97.6367 158.668V174.453H95.9667V158.668H97.6367ZM85.1386 165.365C85.1386 161.999 86.8349 159.855 89.2167 159.846C91.5546 159.855 93.2773 161.999 93.2773 165.365C93.2773 168.767 91.5546 170.911 89.2167 170.903C86.8349 170.911 85.1386 168.767 85.1386 165.365ZM86.7558 165.365C86.747 167.87 87.749 169.408 89.2167 169.408C90.6581 169.408 91.6601 167.87 91.6601 165.365C91.6601 162.896 90.6581 161.349 89.2167 161.34C87.749 161.349 86.747 162.896 86.7558 165.365ZM113.101 158.668V174.453H111.449V165.858H108.32V164.487H111.449V158.668H113.101ZM100.691 170.727V160.074H108.056V161.428H102.379V164.487H107.388V165.823H102.379V169.338C105.015 169.338 106.843 169.259 108.935 168.899L109.111 170.252C106.817 170.621 104.839 170.718 101.922 170.727H100.691ZM129.743 165.893V167.176H115.329V165.893H129.743ZM117.034 169.479V168.283H127.968V171.746H118.722V173.047H128.46V174.225H117.052V170.639H126.316V169.479H117.034ZM117.14 160.25V159.073H127.933V162.483H118.827V163.678H128.197V164.856H117.175V161.375H126.263V160.25H117.14ZM138.471 158.914V160.285H145.766V158.914H147.436V164.135H136.819V158.914H138.471ZM134.938 166.631V165.278H149.299V166.631H142.936V167.985H147.489V171.658H138.313V172.977H147.928V174.26H136.678V170.463H145.837V169.233H136.661V167.985H141.266V166.631H134.938ZM138.471 162.869H145.766V161.516H138.471V162.869ZM163.428 158.668V174.453H161.776V165.981H158.893V164.592H161.776V158.668H163.428ZM150.86 161.446V160.092H157.961V165.717H152.565V169.303C155.078 169.285 157.012 169.206 159.209 168.811L159.35 170.182C156.994 170.595 154.92 170.692 152.143 170.709H150.895V164.364H156.344V161.446H150.86ZM172.863 159.617C176.23 159.626 178.682 161.287 178.682 163.801C178.682 166.156 176.625 167.73 173.689 167.967V171.061H180.105V172.449H165.691V171.061H172.037V167.967C169.119 167.73 167.054 166.156 167.063 163.801C167.054 161.287 169.515 159.626 172.863 159.617ZM168.68 163.801C168.68 165.568 170.438 166.666 172.863 166.684C175.307 166.666 177.056 165.568 177.064 163.801C177.056 162.096 175.307 160.971 172.863 160.989C170.438 160.971 168.68 162.096 168.68 163.801ZM193.812 163.274V164.61H182.967V159.231H184.619V163.274H193.812ZM181.05 167.932V166.596H195.465V167.932H181.05ZM182.843 174.049V169.426H184.513V172.678H193.918V174.049H182.843ZM215.021 165.963V167.317H208.657V168.828C211.54 168.987 213.254 169.953 213.263 171.606C213.254 173.39 211.215 174.392 207.831 174.383C204.403 174.392 202.364 173.39 202.364 171.606C202.364 169.953 204.078 168.978 207.005 168.828V167.317H200.659V165.963H215.021ZM201.415 163.819C204.245 163.529 206.478 162.245 206.706 160.725H201.978V159.389H213.737V160.725H208.956C209.185 162.254 211.399 163.529 214.282 163.819L213.685 165.137C210.951 164.821 208.692 163.669 207.84 161.999C206.97 163.669 204.729 164.821 201.995 165.137L201.415 163.819ZM204.052 171.606C204.043 172.564 205.423 173.117 207.831 173.1C210.204 173.117 211.593 172.564 211.593 171.606C211.593 170.63 210.204 170.103 207.831 170.094C205.423 170.103 204.043 170.63 204.052 171.606ZM229.096 158.668V167.123H227.426V158.668H229.096ZM216.352 163.045C216.361 160.883 218.136 159.38 220.553 159.389C222.962 159.38 224.737 160.883 224.737 163.045C224.737 165.198 222.962 166.701 220.553 166.684C218.136 166.701 216.361 165.198 216.352 163.045ZM217.987 163.045C217.978 164.407 219.059 165.313 220.553 165.313C222.03 165.313 223.102 164.407 223.102 163.045C223.102 161.7 222.03 160.786 220.553 160.795C219.059 160.786 217.978 161.7 217.987 163.045ZM218.796 174.225V167.879H220.43V169.655H227.444V167.879H229.096V174.225H218.796ZM220.43 172.854H227.444V170.973H220.43V172.854ZM244.491 158.668V174.418H242.821V158.668H244.491ZM232.379 170.41V160.198H234.032V168.969C236.334 168.96 238.751 168.758 241.274 168.248L241.502 169.655C238.716 170.226 236.185 170.419 233.698 170.41H232.379ZM259.059 158.668V164.768H261.59V166.139H259.059V174.453H257.389V158.668H259.059ZM247.457 170.533V160.18H254.822V161.533H249.127V169.145C251.773 169.136 253.75 169.022 256 168.617L256.211 170.024C253.741 170.463 251.65 170.542 248.723 170.533H247.457ZM263.959 173.047C263.273 173.038 262.702 172.485 262.711 171.799C262.702 171.114 263.273 170.551 263.959 170.551C264.636 170.551 265.198 171.114 265.207 171.799C265.198 172.485 264.636 173.038 263.959 173.047Z" fill="#CECECE"/>
<path d="M12.9136 112.327C12.896 116.212 15.4273 119.974 20.4722 121.538L18.5035 124.667C14.9351 123.507 12.3863 121.169 10.98 118.251C9.5562 121.503 6.91948 124.104 3.17534 125.37L1.13628 122.241C6.30424 120.589 8.94096 116.546 8.97612 112.362V112.046H2.22612V108.917H19.4878V112.046H12.9136V112.327ZM6.09331 138.308V126.741H26.6246V138.308H6.09331ZM9.96049 135.144H22.7574V129.835H9.96049V135.144ZM22.7222 125.44V106.913H26.6246V114.366H31.0542V117.565H26.6246V125.44H22.7222ZM43.9749 114.542C43.9397 120.378 47.0159 126.214 52.1663 128.429L49.846 131.558C46.1897 129.87 43.5178 126.513 42.0413 122.364C40.5823 126.829 37.8401 130.485 33.9905 132.296L31.5999 129.026C36.8909 126.741 39.9846 120.677 40.0022 114.542V109.479H43.9749V114.542ZM54.4514 138.729V106.913H58.3889V138.729H54.4514ZM78.4814 109.655V124.667H63.4346V109.655H78.4814ZM67.0557 138.062V127.866H70.958V134.897H88.6767V138.062H67.0557ZM67.2666 121.573H74.6494V112.784H67.2666V121.573ZM83.5088 130.116V106.913H87.4111V116.229H91.8408V119.499H87.4111V130.116H83.5088ZM127.104 106.913V138.694H123.166V106.913H127.104ZM100.772 129.94C109.104 125.985 112.936 120.606 113.639 113.382H102.389V110.288H117.612C117.612 119.745 113.938 127.778 102.811 133.069L100.772 129.94ZM155.845 106.913V118.972H160.732V122.171H155.845V138.729H151.943V106.913H155.845ZM132.255 130.96V109.937H147.126V113.101H136.157V127.69C141.097 127.673 145.017 127.427 149.376 126.671L149.833 129.976C144.894 130.819 140.622 130.96 134.892 130.96H132.255ZM187.961 106.913V138.729H184.058V125.687H178.258V122.487H184.058V117.038H178.363V113.839H184.058V106.913H187.961ZM162.402 112.784V109.655H176.57V121.538H166.375V128.288C170.576 128.271 174.215 128.077 178.504 127.444L178.82 130.644C173.951 131.417 169.908 131.522 164.969 131.522H162.508V118.479H172.738V112.784H162.402ZM228.533 124.632V127.796H215.911V138.659H212.044V127.796H199.564V124.632H228.533ZM201.076 119.429C207.316 118.638 211.499 115.28 211.781 111.8H202.236V108.706H225.861V111.8H216.316C216.579 115.28 220.728 118.638 227.021 119.429L225.615 122.487C220.201 121.714 215.982 119.235 214.048 115.808C212.097 119.235 207.913 121.714 202.552 122.487L201.076 119.429ZM239.871 115.245C239.889 120.378 241.647 125.722 245.953 128.429L243.809 131.417C240.943 129.694 239.08 126.741 238.025 123.278C236.883 127.093 234.844 130.327 231.855 132.155L229.43 129.237C234.053 126.442 236.092 120.835 236.109 115.421V109.726H239.871V115.245ZM242.543 121.081V117.847H247.078V107.476H250.77V137.147H247.078V121.081H242.543ZM253.617 138.694V106.913H257.379V138.694H253.617ZM289.389 131.628V134.827H260.35V131.628H267.065V123.595C264.534 122.136 263.005 119.851 263.022 117.038C263.005 111.976 267.962 108.636 274.8 108.636C281.673 108.636 286.665 111.976 286.647 117.038C286.665 119.815 285.171 122.048 282.71 123.507V131.628H289.389ZM266.854 117.038C266.837 120.29 270.053 122.364 274.8 122.347C279.528 122.364 282.815 120.29 282.815 117.038C282.815 113.733 279.528 111.712 274.8 111.729C270.053 111.712 266.837 113.733 266.854 117.038ZM270.932 131.628H278.737V125.001C277.524 125.265 276.206 125.405 274.8 125.405C273.428 125.405 272.128 125.265 270.932 125.019V131.628ZM294.611 135.847C293.099 135.847 291.851 134.616 291.869 133.104C291.851 131.628 293.099 130.415 294.611 130.397C296.07 130.415 297.318 131.628 297.318 133.104C297.318 134.616 296.07 135.847 294.611 135.847Z" fill="#2788F9"/>
<circle cx="150" cy="39.1888" r="37.6761" fill="#EDF2F7"/>
<path d="M167.287 53.496L159.201 45.41C161.105 42.8861 162.248 39.7584 162.248 36.3604C162.248 28.048 155.483 21.2854 147.173 21.2854C138.86 21.2872 132.098 28.0498 132.098 36.3622C132.098 44.6728 138.86 51.4372 147.173 51.4372C150.569 51.4372 153.698 50.2946 156.222 48.3903L164.308 56.4763C164.719 56.887 165.258 57.0923 165.797 57.0923C166.335 57.0923 166.874 56.887 167.287 56.4745C168.108 55.6531 168.108 54.3192 167.287 53.496ZM136.31 36.3622C136.31 30.3718 141.182 25.4995 147.173 25.4995C153.161 25.4995 158.034 30.3718 158.034 36.3604C158.034 42.349 153.161 47.2213 147.173 47.2213C141.182 47.2231 136.31 42.3508 136.31 36.3622V36.3622Z" fill="#BAC6CF"/>
<circle cx="174.804" cy="11.9673" r="11.7207" fill="#2788F9"/>
<path d="M170.521 10.9794L174.634 15.0924L180.991 8.73584" stroke="white" stroke-width="3" stroke-linecap="round"/>
</svg>
